@startuml
class ApplicationDBContext {
    + ApplicationDBContext(dbContextOptions:DbContextOptions)
}
class "IdentityDbContext`1"<T> {
}
class "DbSet`1"<T> {
}
"IdentityDbContext`1" "<User>" <|-- ApplicationDBContext
ApplicationDBContext --> "Users<User>" "DbSet`1"
ApplicationDBContext --> "Locations<Location>" "DbSet`1"
@enduml
